<svg width="1568" height="1300" viewBox="0 0 1568 1300" fill="none" xmlns="http://www.w3.org/2000/svg">
<path d="M1567.03 547.293H854.681L634.55 782.899L502.73 923.744L743.642 1180.77L838.448 1282.02L854.681 1299.55H1567.03V547.293ZM1374.17 753.043V810.159H952.734V753.043H1374.17ZM1374.17 892.589V949.706H952.734V892.589H1374.17ZM1249.49 1031.49V1088.6H952.734V1031.49H1249.49Z" fill="black"/>
<path d="M91.0391 698.524V30H804.032L1156.63 407.1L1048.19 522.631L1024.81 547.295M634.55 782.901H178.053" stroke="black" stroke-width="60" stroke-miterlimit="3" stroke-linecap="square"/>
<path d="M165.066 778.357V782.9C164.027 799.906 157.534 814.444 145.585 826.387C132.209 839.757 116.105 846.508 97.533 846.508C78.9614 846.508 62.8574 839.757 49.4807 826.387C36.1039 813.016 30 797.439 30 778.357C30 759.275 36.4936 743.698 49.4807 730.327C61.299 718.904 75.1952 712.543 91.0395 711.115C93.1174 710.855 95.3252 710.855 97.533 710.855C116.105 710.855 132.209 717.346 145.585 730.327C158.572 743.698 165.066 759.794 165.066 778.357Z" stroke="black" stroke-width="60" stroke-miterlimit="3" stroke-linecap="square"/>
<path d="M778.058 253.274C778.058 280.535 768.058 303.901 748.188 323.372C729.097 342.844 705.72 352.58 678.057 352.58C650.395 352.58 626.758 342.844 607.278 323.372C587.797 303.901 578.057 280.535 578.057 253.274C578.057 226.014 587.797 201.74 607.278 181.879C626.758 162.796 650.395 153.32 678.057 153.32C705.72 153.32 729.097 162.796 748.188 181.879C767.279 200.961 778.058 225.625 778.058 253.274Z" stroke="#010101" stroke-width="60" stroke-miterlimit="3"/>
<path d="M1037.8 514.842L878.059 388.926L696.239 544.05L352.081 273.395L105.975 483.688" stroke="#010101" stroke-width="60" stroke-miterlimit="3" stroke-linecap="square"/>
</svg>
